<svg width="128" height="80" viewBox="0 0 128 80" fill="none" xmlns="http://www.w3.org/2000/svg">
<g clip-path="url(#clip0_59_56)">
<path opacity="0.201" d="M40 80C62.0914 80 80 62.0914 80 40C80 17.9086 62.0914 0 40 0C17.9086 0 0 17.9086 0 40C0 62.0914 17.9086 80 40 80Z" fill="black"/>
<path d="M62.004 44.7162C67.838 44.7162 72.364 49.9022 71.528 55.7282C71.2853 57.3949 70.6109 58.9692 69.5717 60.2947C68.5325 61.6202 67.1647 62.6508 65.604 63.2842C63.8085 64.0114 61.8349 64.178 59.9429 63.7621C58.0509 63.3462 56.3291 62.3673 55.004 60.9542C52.628 58.4342 52.534 55.7282 52.478 55.7282C51.638 49.8802 56.192 44.7162 62.004 44.7162ZM106.004 44.7162C112.918 44.7162 117.6 51.8502 114.824 58.2042C113.978 60.1408 112.519 61.7456 110.672 62.7713C108.824 63.797 106.691 64.1866 104.6 63.8802C102.55 63.5729 100.654 62.6141 99.192 61.1456C97.7296 59.6771 96.7787 57.777 96.48 55.7262C95.64 49.8962 100.172 44.7162 106.004 44.7162ZM75.924 32.5502V35.4742C75.9236 35.8237 75.9942 36.1696 76.1315 36.491C76.2689 36.8124 76.4701 37.1025 76.723 37.3438C76.9758 37.5851 77.2751 37.7725 77.6026 37.8946C77.93 38.0167 78.2789 38.071 78.628 38.0542C80.014 37.9882 81.082 36.7922 81.082 35.4022V32.5502H97.682L123.794 33.9822C124.323 34.0116 124.831 34.2034 125.248 34.5316C125.664 34.8598 125.969 35.3083 126.122 35.8162C126.662 37.6062 127.014 38.7702 127.248 39.5562H125.154C123.766 39.5562 122.572 40.6242 122.506 42.0122C122.489 42.361 122.543 42.7095 122.665 43.0367C122.787 43.3639 122.974 43.663 123.215 43.9158C123.456 44.1686 123.745 44.3699 124.066 44.5075C124.387 44.6451 124.733 44.7161 125.082 44.7162H127.972C127.644 49.1662 124.832 53.1022 120.772 54.8162C121.032 46.3922 114.262 39.5562 106.004 39.5562C97.37 39.5562 90.48 46.9922 91.288 55.7282H76.718C77.578 46.4182 69.712 38.6662 60.456 39.6362V32.5502H75.924ZM55.3 32.5502V41.1662C52.6626 42.5115 50.4893 44.617 49.061 47.2104C47.6327 49.8039 47.0151 52.7661 47.288 55.7142C45.318 55.596 43.4674 54.7305 42.1138 53.2944C40.7601 51.8583 40.0056 49.9597 40.004 47.9862V44.7162H42.924C43.6083 44.7162 44.2645 44.4444 44.7483 43.9605C45.2322 43.4767 45.504 42.8205 45.504 42.1362C45.504 41.4519 45.2322 40.7957 44.7483 40.3119C44.2645 39.828 43.6083 39.5562 42.924 39.5562H40.002V33.1302L40.008 32.5502H55.3ZM85.272 16.1582C90.572 16.1582 95.272 19.3422 97.24 24.2682L98.5 27.4262C98.4567 27.4238 98.4133 27.4211 98.37 27.4182L98.318 27.4142L98.25 27.4102L98.206 27.4062C98.0568 27.3982 97.9074 27.3942 97.758 27.3942L97.562 27.3922H97.484L97.212 27.3902H97.108L96.456 27.3882H80.422L77.056 16.1602L85.272 16.1582ZM58.008 16.1582L55.764 27.3902H41.476L44.416 17.9702C44.5797 17.4452 44.9068 16.9863 45.3497 16.6603C45.7926 16.3343 46.3281 16.1584 46.878 16.1582H58.008ZM71.672 16.1582L75.038 27.3882H61.024L63.266 16.1582H71.672Z" fill="#26B5C0"/>
</g>
<defs>
<clipPath id="clip0_59_56">
<rect width="128" height="80" fill="white"/>
</clipPath>
</defs>
</svg>
