<svg width="128" height="80" viewBox="0 0 128 80" fill="none" xmlns="http://www.w3.org/2000/svg">
<g clip-path="url(#clip0_59_37)">
<path opacity="0.201" d="M43.84 80C65.9314 80 83.84 62.0914 83.84 40C83.84 17.9086 65.9314 0 43.84 0C21.7486 0 3.84 17.9086 3.84 40C3.84 62.0914 21.7486 80 43.84 80Z" fill="black"/>
<path d="M65.8 45.6701C69.682 45.6701 72.832 48.8781 72.832 52.8361C72.832 56.7921 69.682 60.0001 65.798 60.0001C61.914 60.0001 58.766 56.7921 58.766 52.8361C58.766 48.8781 61.916 45.6701 65.8 45.6701ZM109.712 45.6701C113.596 45.6701 116.746 48.8781 116.746 52.8361C116.746 56.7921 113.596 60.0001 109.712 60.0001C105.828 60.0001 102.68 56.7921 102.68 52.8361C102.68 48.8781 105.828 45.6701 109.712 45.6701ZM91.426 24.7701C91.6626 24.5273 91.9455 24.3343 92.2579 24.2026C92.5703 24.0708 92.9059 24.0029 93.245 24.0029C93.5841 24.0029 93.9197 24.0708 94.2321 24.2026C94.5445 24.3343 94.8273 24.5273 95.064 24.7701L102.494 32.3381C111.382 32.1081 121.894 34.6221 130.422 39.8441C131.196 40.3181 131.67 41.1721 131.67 42.0921C131.67 48.1041 127.418 53.1201 121.818 54.1921C122.612 46.7961 116.902 40.4281 109.712 40.4281C102.42 40.4281 96.704 46.9561 97.634 54.4081H78.296C79.816 51.3201 80.282 50.3561 80.97 48.9861L81.134 48.6621C81.976 46.9921 83.246 44.5221 86.9 37.3621C90.26 37.3161 93.84 36.5461 97.394 34.5561L91.426 28.4761C90.9425 27.9801 90.6718 27.3148 90.6718 26.6221C90.6718 25.9294 90.9425 25.2641 91.426 24.7681V24.7701ZM76.066 26.8981C77.432 26.4981 78.856 27.3021 79.25 28.6941L80.748 33.9981C81.2208 35.674 81.0444 37.4665 80.254 39.0181L76.788 45.8081L76.356 46.6561C74.216 42.8761 70.236 40.4281 65.798 40.4281C58.608 40.4281 52.898 46.7961 53.694 54.1981C50.03 53.5041 46.866 51.1241 45.138 47.6461C44.9215 47.2099 44.8289 46.7226 44.8702 46.2374C44.9114 45.7522 45.085 45.2876 45.372 44.8941L47.282 42.2881L44.632 39.6981C43.13 38.2281 43.88 35.6501 45.912 35.2361L59.14 32.5441L59.4 32.4921C59.584 32.4541 59.69 32.4321 59.714 32.4301C60.342 32.1381 61.854 31.2481 61.854 29.4181C61.854 27.9501 63.038 26.7641 64.486 26.7981C65.91 26.8301 67.022 28.1221 66.998 29.5741C66.9859 30.6841 66.7492 31.7801 66.302 32.7961C69.5081 33.223 72.6593 33.9913 75.702 35.0881L74.302 30.1421C74.1104 29.4781 74.1881 28.7653 74.5182 28.1581C74.8484 27.5509 75.4045 27.0983 76.066 26.8981Z" fill="#19B89D"/>
</g>
<defs>
<clipPath id="clip0_59_37">
<rect width="128" height="80" fill="white"/>
</clipPath>
</defs>
</svg>
