<svg width="128" height="80" viewBox="0 0 128 80" fill="none" xmlns="http://www.w3.org/2000/svg">
<g clip-path="url(#clip0_59_52)">
<path opacity="0.201" d="M40 80C62.0914 80 80 62.0914 80 40C80 17.9086 62.0914 0 40 0C17.9086 0 0 17.9086 0 40C0 62.0914 17.9086 80 40 80Z" fill="black"/>
<path d="M105.872 48.22C109.756 48.22 112.906 51.304 112.906 55.11C112.906 58.916 109.756 62 105.872 62C101.988 62 98.84 58.916 98.84 55.11C98.84 51.304 101.988 48.22 105.872 48.22ZM61.958 48.22C65.842 48.22 68.992 51.304 68.992 55.11C68.992 58.916 65.842 62 61.958 62C58.074 62 54.926 58.916 54.926 55.11C54.926 51.304 58.074 48.22 61.958 48.22ZM75.854 38.524V41.382C75.854 42.814 77.074 43.968 78.55 43.9C79.2124 43.8642 79.8357 43.5755 80.2916 43.0936C80.7474 42.6118 81.001 41.9733 81 41.31V38.524H97.512L124.478 41.15C126.39 41.336 127.83 42.912 127.83 44.778C127.83 50.558 123.578 55.384 117.978 56.416C118.772 49.302 113.062 43.176 105.872 43.176C98.58 43.176 92.864 49.456 93.794 56.622H74.036C74.968 49.446 69.242 43.178 61.958 43.178C54.768 43.178 49.058 49.302 49.854 56.418C45.574 55.622 42.022 52.594 40.634 48.556H42.918C44.38 48.556 45.558 47.36 45.488 45.912C45.422 44.556 44.23 43.512 42.844 43.512H40V43.01C40 40.462 42.132 38.524 44.612 38.524H75.854ZM85.18 22C90.47 22 95.16 25.112 97.124 29.926L98.576 33.484H80.34L76.826 22H85.18ZM71.45 22L74.966 33.482H53.01L59.724 26.174C60.9435 24.8555 62.4229 23.804 64.069 23.0856C65.715 22.3672 67.492 21.9976 69.288 22H71.452H71.45Z" fill="#FFD473"/>
</g>
<defs>
<clipPath id="clip0_59_52">
<rect width="128" height="80" fill="white"/>
</clipPath>
</defs>
</svg>
